<svg width="68" height="68" viewBox="0 0 68 68" fill="none" xmlns="http://www.w3.org/2000/svg">
<path d="M11.3335 28.3339L9.33032 30.3371L7.32715 28.3339L9.33032 26.3307L11.3335 28.3339ZM59.5002 51.0006C59.5002 51.752 59.2016 52.4727 58.6703 53.004C58.1389 53.5354 57.4183 53.8339 56.6668 53.8339C55.9154 53.8339 55.1947 53.5354 54.6633 53.004C54.132 52.4727 53.8335 51.752 53.8335 51.0006H59.5002ZM23.497 44.5037L9.33032 30.3371L13.3366 26.3307L27.5033 40.4974L23.497 44.5037ZM9.33032 26.3307L23.497 12.1641L27.5033 16.1704L13.3366 30.3371L9.33032 26.3307ZM11.3335 25.5006H39.6668V31.1672H11.3335V25.5006ZM59.5002 45.3339V51.0006H53.8335V45.3339H59.5002ZM39.6668 25.5006C44.9269 25.5006 49.9716 27.5901 53.6911 31.3096C57.4106 35.0291 59.5002 40.0738 59.5002 45.3339H53.8335C53.8335 41.5767 52.3409 37.9733 49.6842 35.3166C47.0274 32.6598 43.424 31.1672 39.6668 31.1672V25.5006Z" fill="white"/>
</svg>
