<?xml version="1.0" encoding="UTF-8"?>
<svg id="Calque_1" data-name="Calque 1" xmlns="http://www.w3.org/2000/svg" xmlns:xlink="http://www.w3.org/1999/xlink" viewBox="0 0 109 109">
  <defs>
    <style>
      .cls-1 {
        fill: none;
      }

      .cls-1, .cls-2 {
        stroke-width: 0px;
      }

      .cls-2 {
        fill: #fff;
      }

      .cls-3 {
        clip-path: url(#clippath);
      }
    </style>
    <clipPath id="clippath">
      <rect class="cls-1" x="-3.7" y="-.1" width="113.2" height="113.2"/>
    </clipPath>
  </defs>
  <g class="cls-3">
    <path class="cls-2" d="m55.3,10c-.6,0-1.2.2-1.7.7-.4.4-.7,1-.7,1.7v44.6h-9.4V21.8c0-.6-.2-1.2-.7-1.7-.4-.4-1-.7-1.7-.7-.6,0-1.2.2-1.7.7-.4.4-.7,1-.7,1.7v44.6h-9.4c-1.8-7.6-6.4-12-11.3-12.6,2.3,6,4.8,11.9,7.4,17.7,4,9.2,8.1,16.1,13.3,20.6,5,4.4,11.5,7,21.1,7,6.8,0,13.4-2.7,18.2-7.6,4.8-4.8,7.6-11.4,7.6-18.2v-39.8c0-.6-.2-1.2-.7-1.7-.4-.4-1-.7-1.7-.7-.6,0-1.2.2-1.7.7-.4.4-.7,1-.7,1.7v23.5h-9.4V19.4c0-.6-.2-1.2-.7-1.7-.4-.4-1-.7-1.7-.7-.6,0-1.2.2-1.7.7-.4.4-.7,1-.7,1.7v37.6h-9.4V12.4c0-.6-.2-1.2-.7-1.7.1-.4-.5-.7-1.2-.7Zm39.9,63.4c0,9.3-3.7,18.3-10.3,24.9s-15.5,10.3-24.9,10.3c-11.5,0-20.3-3.2-27.3-9.4-6.8-6-11.5-14.4-15.7-23.9-4.4-10-6.8-16.1-8.1-19.6-1.7-4.5.6-10.8,6.9-11.3,5-.4,9.9,1.2,13.7,4.4v-27c0-1.8.4-3.5,1.2-5.1.8-1.6,1.9-3,3.2-4.1,1.4-1.1,3-1.9,4.7-2.3,1.7-.4,3.5-.4,5.2,0,.5-2.5,1.7-4.8,3.6-6.6,1.9-1.7,4.3-2.8,6.8-3.1,2.5-.2,5.1.3,7.3,1.7,2.2,1.3,3.9,3.4,4.8,5.7,1.7-.5,3.6-.6,5.3-.2,1.8.3,3.4,1.1,4.9,2.2,1.4,1.1,2.6,2.5,3.4,4.1s1.2,3.4,1.2,5.2v2.7c1.7-.3,3.5-.3,5.2.1s3.3,1.2,4.6,2.3c1.3,1.1,2.4,2.5,3.2,4.1.7,1.6,1.1,3.3,1.1,5,0,0,0,39.9,0,39.9Z"/>
  </g>
</svg>