<?xml version="1.0" encoding="UTF-8"?>
<svg xmlns="http://www.w3.org/2000/svg" viewBox="0 0 34.02 34.02">
  <defs>
    <style>
      .cls-1 {
        fill: #fff;
        fill-rule: evenodd;
        stroke-width: 0px;
      }
    </style>
  </defs>
  <g id="Calque_1" data-name="Calque 1" image-rendering="optimizeQuality" shape-rendering="geometricPrecision" text-rendering="geometricPrecision">
    <path class="cls-1" d="m17.72,34.02c3.8,0,7.26-1.55,9.76-4.06,2.51-2.51,4.06-5.95,4.06-9.75V7.25c0-.66-.27-1.27-.71-1.71-.44-.43-1.04-.7-1.71-.7s-1.27.27-1.71.7c-.43.44-.7,1.05-.7,1.71v8.02c0,.24-.19.43-.43.43s-.43-.19-.43-.43V3.55c0-.67-.27-1.27-.71-1.71-.43-.44-1.04-.71-1.7-.71s-1.27.27-1.71.71c-.44.44-.71,1.04-.71,1.71v11.71c0,.24-.19.43-.43.43s-.42-.19-.42-.43V2.43c0-.67-.27-1.28-.71-1.71C18.99.27,18.39,0,17.72,0s-1.27.27-1.71.71c-.43.43-.7,1.04-.7,1.71v12.83c0,.24-.19.43-.43.43s-.43-.19-.43-.43V3.55c0-.67-.27-1.27-.71-1.71-.43-.44-1.04-.71-1.7-.71s-1.27.27-1.71.71c-.44.44-.71,1.04-.71,1.71l.02,15.38c0,.24-.19.43-.42.43s-.39-.16-.43-.35l-1.53-3.72c-.16-.65-.58-1.17-1.1-1.49-.53-.32-1.19-.43-1.84-.27s-1.17.58-1.49,1.11-.44,1.18-.27,1.83l1.86,7.42h0c.78,2.83,2.46,5.32,4.71,7.11,2.36,1.89,5.36,3.03,8.61,3.03Z"/>
  </g>
</svg>