<?xml version="1.0" encoding="UTF-8"?>
<svg id="Calque_1" data-name="Calque 1" xmlns="http://www.w3.org/2000/svg" viewBox="0 0 115 115">
  <defs>
    <style>
      .cls-1 {
        fill: #fff;
        stroke-width: 0px;
      }
    </style>
  </defs>
  <g>
    <path class="cls-1" d="m59.44,42.91c-.22-.31-.51-.57-.85-.74-.34-.18-.72-.27-1.1-.27-.38,0-.76.09-1.1.27-.34.18-.63.43-.86.74l-30.52,42.02c-1.73,2.38-.09,5.77,2.79,5.77h59.34c2.87,0,4.51-3.4,2.79-5.77l-30.49-42.02Zm5.43,37.73c-1.96,1.96-4.62,3.06-7.39,3.06s-5.43-1.1-7.39-3.06c-1.96-1.96-3.06-4.62-3.06-7.39s1.1-5.43,3.06-7.39c1.96-1.96,4.62-3.06,7.39-3.06s5.43,1.1,7.39,3.06c1.96,1.96,3.06,4.62,3.06,7.39s-1.1,5.43-3.06,7.39Z"/>
    <path class="cls-1" d="m87.15,92.1H27.8c-1.83,0-3.5-1.03-4.34-2.69-.88-1.72-.72-3.76.41-5.32l30.52-42.02c.34-.48.81-.89,1.35-1.17.54-.28,1.14-.42,1.74-.42h0c.6,0,1.21.15,1.75.43.53.28,1,.68,1.35,1.17l30.48,42.01c1.13,1.55,1.29,3.59.41,5.31-.85,1.66-2.51,2.7-4.34,2.7Zm-29.66-48.79c-.16,0-.31.04-.45.11-.14.07-.26.18-.35.3l-30.53,42.03c-.51.71-.58,1.6-.18,2.38.37.72,1.05,1.15,1.83,1.15h59.34c.78,0,1.46-.43,1.83-1.15.4-.78.33-1.67-.18-2.37l-30.5-42.03c-.09-.13-.21-.23-.35-.31-.14-.07-.3-.11-.45-.11h0Zm0,41.8c-3.17,0-6.15-1.23-8.39-3.47-2.24-2.24-3.47-5.22-3.47-8.39s1.23-6.15,3.47-8.39c2.24-2.24,5.22-3.47,8.39-3.47s6.14,1.23,8.39,3.47c2.24,2.24,3.47,5.22,3.47,8.39s-1.23,6.15-3.47,8.39c-2.24,2.24-5.22,3.47-8.39,3.47Zm0-20.9c-2.41,0-4.68.94-6.39,2.65-1.71,1.71-2.65,3.98-2.65,6.39s.94,4.68,2.65,6.39c1.71,1.71,3.98,2.65,6.39,2.65s4.68-.94,6.39-2.65,2.65-3.98,2.65-6.39-.94-4.69-2.65-6.39c-1.71-1.71-3.98-2.65-6.39-2.65Z"/>
  </g>
  <g>
    <path class="cls-1" d="m113.17,92.2c.09-.84-.11-1.72-.69-2.49l-4.35-5.8-7.94-10.58-7.89-10.5v-26.56c0-1.98-1.56-3.59-3.48-3.59h-6.98c-1.92,0-3.48,1.61-3.48,3.59v7.99l-10.24-13.63-5.08-6.77-3.13-4.17c-.28-.38-.65-.68-1.08-.9-.42-.21-.89-.32-1.36-.32s-.94.11-1.36.32c-.42.21-.79.52-1.08.9l-3.13,4.16-5.08,6.77L14.75,73.34l-7.94,10.57-4.35,5.8c-.67.89-.84,1.93-.63,2.87-.21,1.96,1.26,3.92,3.47,3.92h.15c.54,0,1.08-.13,1.56-.37.48-.24.9-.6,1.23-1.03l4.27-5.73h-.06l7.94-10.57,32.07-42.71,3.48-4.63c.19-.25.43-.45.71-.59.28-.14.58-.21.9-.21s.62.07.9.21c.28.14.52.34.71.59l3.48,4.63,32.07,42.71,7.94,10.57h-.06l4.26,5.73c.32.43.74.79,1.23,1.03.48.24,1.02.37,1.56.37h.15c2.35,0,3.87-2.23,3.41-4.3Z"/>
    <path class="cls-1" d="m109.77,97.92h-.15c-.76,0-1.51-.18-2.19-.52-.68-.34-1.27-.84-1.73-1.45l-5.94-7.99h.04l-41.8-55.66c-.05-.07-.12-.13-.21-.17-.17-.08-.37-.08-.54,0-.08.04-.16.1-.21.18L9.36,95.94c-.45.61-1.05,1.11-1.72,1.45-.68.34-1.43.52-2.19.52h-.15c-1.4,0-2.68-.57-3.61-1.6-.9-1-1.36-2.32-1.28-3.65-.23-1.35.09-2.69.93-3.8L53.91,18.86c.41-.55.96-1,1.57-1.31,1.23-.62,2.75-.62,3.98,0,.62.31,1.16.76,1.57,1.31l15.91,21.19v-3.76c0-2.76,2.19-5,4.89-5h6.98c2.7,0,4.89,2.24,4.89,5v26.09l19.9,26.5c.71.94,1.05,2.09.98,3.26.24,1.39-.14,2.86-1.04,3.98-.93,1.15-2.31,1.82-3.79,1.82Zm-4.39-7.13l2.59,3.48c.19.26.44.47.73.61.29.14.61.22.93.22h.15c.85,0,1.36-.48,1.59-.76.41-.52.58-1.2.44-1.83l-.05-.22.02-.23c.04-.38,0-.94-.41-1.49l-20.46-27.25v-27.03c0-1.2-.93-2.18-2.07-2.18h-6.98c-1.14,0-2.07.98-2.07,2.18v12.22l-20.99-27.95c-.15-.2-.35-.37-.58-.48-.45-.23-1.01-.23-1.47,0-.23.11-.43.28-.58.48L3.59,90.56c-.38.5-.51,1.12-.38,1.73l.05.22-.02.23c-.06.6.14,1.23.55,1.69.27.31.76.67,1.51.67h.15c.32,0,.64-.08.93-.22.29-.14.54-.36.73-.61l2.59-3.48h-.01l1.64-2.26L54.8,30.6c.32-.42.74-.77,1.21-1,.94-.47,2.1-.47,3.05,0,.47.23.89.58,1.2.99l45.19,60.19h-.08Z"/>
  </g>
</svg>