<?xml version="1.0" encoding="UTF-8"?>
<svg id="Calque_1" data-name="Calque 1" xmlns="http://www.w3.org/2000/svg" viewBox="0 0 186.04 184.25">
  <defs>
    <style>
      .cls-1 {
        fill: #fff;
        stroke-width: 0px;
      }
    </style>
  </defs>
  <path class="cls-1" d="m70.1,163.13c-2.31,0-4.8-.89-6.57-2.67-3.73-3.55-3.91-9.59-.36-13.5l17.41-18.12-17.95-17.06c-3.73-3.55-3.91-9.59-.36-13.5,3.55-3.73,9.59-3.91,13.5-.36l24.87,23.81c1.78,1.78,2.84,4.09,2.84,6.75,0,2.49-.89,4.97-2.67,6.75l-23.99,24.87c-1.78,1.95-4.26,3.02-6.75,3.02Z"/>
  <path class="cls-1" d="m90.71,138.61C40.96,138.61,1.52,113.73.98,81.93.45,49.06,40.43,22.41,91.95,21.16c31.8-.71,61.12,8.71,78.18,25.05,9.59,9.24,14.75,20.08,14.92,31.45.36,19.01-12.79,36.6-36.25,48.15-4.26,2.13-9.42.36-11.55-3.91-2.13-4.26-.36-9.42,3.91-11.55,17.06-8.35,27.01-20.61,26.83-32.51-.18-6.93-3.38-13.5-9.59-19.54-13.68-13.15-39.09-20.97-66.1-20.25-40.51,1.24-74.62,21.14-74.09,43.71.36,22.03,32.87,39.8,72.67,39.8h.53c4.8,0,8.53,3.73,8.53,8.53s-3.73,8.53-8.53,8.53h-.71Z"/>
</svg>