<svg width="104" height="104" viewBox="0 0 104 104" fill="none" xmlns="http://www.w3.org/2000/svg">
<path d="M86.2332 54.8574C85.5385 54.0666 85.1554 53.05 85.1554 51.9974C85.1554 50.9448 85.5385 49.9282 86.2332 49.1374L91.7799 42.8974C92.3911 42.2157 92.7706 41.3578 92.864 40.447C92.9575 39.5361 92.76 38.6191 92.2999 37.8274L83.6332 22.8341C83.1778 22.0434 82.4844 21.4166 81.6518 21.0431C80.8192 20.6696 79.89 20.5684 78.9965 20.7541L70.8499 22.4008C69.8133 22.615 68.7341 22.4423 67.816 21.9154C66.898 21.3885 66.2045 20.5439 65.8665 19.5408L63.2232 11.6108C62.9325 10.7501 62.3786 10.0025 61.6399 9.47374C60.9012 8.94498 60.015 8.66175 59.1065 8.6641H41.7732C40.8283 8.61477 39.8931 8.87611 39.1107 9.40819C38.3282 9.94027 37.7414 10.7138 37.4399 11.6108L35.0132 19.5408C34.6752 20.5439 33.9818 21.3885 33.0637 21.9154C32.1456 22.4423 31.0665 22.615 30.0299 22.4008L21.6665 20.7541C20.8196 20.6344 19.9562 20.7681 19.185 21.1382C18.4139 21.5083 17.7696 22.0984 17.3332 22.8341L8.66654 37.8274C8.1949 38.6102 7.98284 39.5221 8.06067 40.4327C8.1385 41.3433 8.50223 42.206 9.09988 42.8974L14.6032 49.1374C15.2979 49.9282 15.6811 50.9448 15.6811 51.9974C15.6811 53.05 15.2979 54.0666 14.6032 54.8574L9.09988 61.0974C8.50223 61.7889 8.1385 62.6515 8.06067 63.5621C7.98284 64.4727 8.1949 65.3846 8.66654 66.1674L17.3332 81.1608C17.7886 81.9515 18.4821 82.5783 19.3146 82.9518C20.1472 83.3253 21.0764 83.4264 21.9699 83.2408L30.1165 81.5941C31.1531 81.3799 32.2323 81.5525 33.1504 82.0794C34.0684 82.6063 34.7619 83.451 35.0999 84.4541L37.7432 92.3841C38.0447 93.281 38.6315 94.0546 39.414 94.5867C40.1965 95.1187 41.1316 95.3801 42.0765 95.3308H59.4099C60.3183 95.3331 61.2045 95.0499 61.9433 94.5211C62.682 93.9924 63.2358 93.2448 63.5265 92.3841L66.1699 84.4541C66.5079 83.451 67.2013 82.6063 68.1194 82.0794C69.0374 81.5525 70.1166 81.3799 71.1532 81.5941L79.2999 83.2408C80.1933 83.4264 81.1225 83.3253 81.9551 82.9518C82.7877 82.5783 83.4811 81.9515 83.9365 81.1608L92.6032 66.1674C93.0633 65.3758 93.2608 64.4588 93.1674 63.5479C93.0739 62.6371 92.6944 61.7792 92.0832 61.0974L86.2332 54.8574ZM79.7765 60.6641L83.2432 64.5641L77.6965 74.1841L72.5832 73.1441C69.4622 72.5061 66.2157 73.0363 63.4598 74.6339C60.7039 76.2315 58.6305 78.7854 57.6332 81.8108L55.9865 86.6641H44.8932L43.3332 81.7241C42.3359 78.6987 40.2625 76.1449 37.5066 74.5472C34.7507 72.9496 31.5042 72.4195 28.3832 73.0574L23.2699 74.0974L17.6365 64.5208L21.1032 60.6208C23.235 58.2373 24.4136 55.1518 24.4136 51.9541C24.4136 48.7564 23.235 45.6709 21.1032 43.2874L17.6365 39.3874L23.1832 29.8541L28.2965 30.8941C31.4175 31.5321 34.6641 31.0019 37.42 29.4043C40.1759 27.8067 42.2492 25.2528 43.2465 22.2274L44.8932 17.3308H55.9865L57.6332 22.2708C58.6305 25.2961 60.7039 27.85 63.4598 29.4476C66.2157 31.0452 69.4622 31.5754 72.5832 30.9374L77.6965 29.8974L83.2432 39.5174L79.7765 43.4174C77.6687 45.7954 76.5047 48.8631 76.5047 52.0408C76.5047 55.2185 77.6687 58.2861 79.7765 60.6641ZM50.4399 34.6641C47.0117 34.6641 43.6604 35.6807 40.81 37.5853C37.9595 39.4899 35.7379 42.197 34.426 45.3642C33.114 48.5315 32.7708 52.0167 33.4396 55.379C34.1084 58.7413 35.7592 61.8298 38.1834 64.2539C40.6075 66.6781 43.696 68.3289 47.0583 68.9977C50.4206 69.6665 53.9058 69.3233 57.073 68.0113C60.2403 66.6994 62.9474 64.4778 64.852 61.6273C66.7566 58.7769 67.7732 55.4256 67.7732 51.9974C67.7732 47.4003 65.947 42.9915 62.6964 39.7409C59.4458 36.4903 55.037 34.6641 50.4399 34.6641ZM50.4399 60.6641C48.7258 60.6641 47.0502 60.1558 45.6249 59.2035C44.1997 58.2512 43.0889 56.8976 42.4329 55.314C41.777 53.7304 41.6053 51.9878 41.9397 50.3066C42.2741 48.6255 43.0996 47.0812 44.3116 45.8692C45.5237 44.6571 47.0679 43.8317 48.7491 43.4973C50.4303 43.1629 52.1728 43.3345 53.7565 43.9905C55.3401 44.6464 56.6936 45.7573 57.6459 47.1825C58.5982 48.6077 59.1065 50.2833 59.1065 51.9974C59.1065 54.296 58.1934 56.5004 56.5681 58.1257C54.9428 59.751 52.7384 60.6641 50.4399 60.6641Z" fill="white"/>
</svg>
